<?xml version="1.0" encoding="UTF-8"?>
<svg id="Layer_1" width="250" height="90" xmlns="http://www.w3.org/2000/svg" version="1.1" viewBox="0 0 303 100.26">
  <!-- Generator: Adobe Illustrator 29.4.0, SVG Export Plug-In . SVG Version: 2.1.0 Build 152)  -->
  <defs>
    <style>
      .st0 {
        fill: #fff;
      }
    </style>
  </defs>
  <g>
    <g>
      <path class="st0" d="M121.45,69.32h-.76c-.88,0-1.13.35-1.2,1.36h-.31l.04-2.02h5.67l.04,2.06h-.31c0-1.07-.35-1.41-1.21-1.41h-.75v8.7h-1.22v-8.7h0Z"/>
      <path class="st0" d="M127.71,70.56c0-1.37-.02-1.37-1.05-1.58v-.31h2.73c.83,0,3.12,0,3.12,2.49,0,1.58-.82,2.11-1.7,2.29l2.04,4.57h-1.27l-1.96-4.32h-.69v4.32h-1.22v-7.47h0ZM128.93,73.05h.63c.72,0,1.73-.25,1.73-1.81s-.69-1.92-1.62-1.92c-.74,0-.74.25-.74,1.25v2.47h0Z"/>
      <path class="st0" d="M137.25,70.45c.07-.24.19-.72.19-.82,0-.55-.41-.57-.85-.65v-.31h2.08l2.7,9.35h-1.15l-.83-2.89h-2.83l-.83,2.89h-.69l2.21-7.58h0ZM136.75,74.48h2.45l-1.26-4.06-1.19,4.06h0Z"/>
      <path class="st0" d="M143.9,70.45c-.35-1.26-.45-1.26-1.34-1.47v-.31h2.15l2.17,7.62h.02l2.12-7.62h.72l-2.7,9.35h-.96l-2.17-7.58h0Z"/>
      <path class="st0" d="M152.66,70.56c0-1.37-.03-1.37-1.05-1.58v-.31h5.31l.03,2.06h-.31c0-1.11-.47-1.41-1.2-1.41h-.86c-.55,0-.7.06-.7.72v2.77h1.34c.76,0,.84-.61.91-1.07h.31v2.92h-.31c0-.75-.24-1.2-.91-1.2h-1.34v3.1c0,.78.14.81.7.81h1.23c.63,0,.93-.28,1-1.36h.31l-.03,2.02h-4.42v-7.47h0Z"/>
      <path class="st0" d="M160.51,70.5c0-1.17-.03-1.18-1.11-1.36v-.31l2.33-.32v7.81c0,.7.25,1.04.74,1.04h.95c.7,0,1.31-.06,1.31-1.36h.31l-.03,2.02h-4.5v-7.52h0Z"/>
      <path class="st0" d="M177.27,77.96c-.23.11-.74.22-1.52.22-1.45,0-2.43-.82-2.43-2.6,0-1.63.81-2.1,1.51-2.28v-.03c-.7-.22-1.41-.57-1.41-2.13,0-1.39.95-2.13,2.04-2.13,1.45,0,1.85.99,1.89,1.79h-1.16c0-.53-.08-1.32-.69-1.32-.64,0-.86.7-.86,1.7,0,1.74.68,1.81,1.61,1.81h1.77v-2.73l1.11-.85v3.57h1.41v.55h-1.41v2.49c0,1.24.2,1.53.88,1.53.18,0,.42-.07.53-.11v.63c-.24.07-.54.1-.9.1-1.47,0-1.62-.88-1.62-2.23v-2.4h-1.77c-.96,0-1.71.03-1.71,1.95,0,1.15.38,2.07,1.4,2.07.61,0,1.07-.15,1.33-.24v.63h0Z"/>
      <path class="st0" d="M190.17,69.32h-.76c-.88,0-1.13.35-1.2,1.36h-.31l.04-2.02h5.67l.04,2.06h-.31c0-1.07-.35-1.41-1.21-1.41h-.75v8.7h-1.22v-8.7h0Z"/>
      <path class="st0" d="M195.81,73.38c0-2.99.66-4.86,3.07-4.86s3,1.88,3,4.86-.7,4.8-3,4.8-3.07-1.82-3.07-4.8ZM198.88,77.53c1.72,0,1.78-2.36,1.78-4.14s-.1-4.21-1.78-4.21-1.85,2.34-1.85,4.21c0,1.72.17,4.14,1.85,4.14Z"/>
      <path class="st0" d="M210.53,74.43c0,1.86-.13,3.75-2.64,3.75-1.95,0-2.66-1.15-2.66-3.22v-4.45c0-1.17-.03-1.18-1.11-1.36v-.31l2.33-.32v5.74c0,1.58,0,3.27,1.58,3.27,1.7,0,1.7-1.54,1.7-2.95v-5.91h.8v5.75h0Z"/>
      <path class="st0" d="M214.24,70.56c0-1.37-.02-1.37-1.05-1.58v-.31h2.73c.83,0,3.12,0,3.12,2.49,0,1.58-.82,2.11-1.7,2.29l2.04,4.57h-1.27l-1.96-4.32h-.69v4.32h-1.22v-7.47h0ZM215.46,73.05h.63c.72,0,1.73-.25,1.73-1.81s-.69-1.92-1.62-1.92c-.74,0-.74.25-.74,1.25v2.47h0Z"/>
      <path class="st0" d="M226.16,69.79c-.3-.18-1.12-.63-1.98-.63-.59,0-1.06.43-1.06,1.35,0,2.14,3.6,1.95,3.6,4.92,0,1.99-1.25,2.74-2.78,2.74-.85,0-1.71-.29-1.94-.36v-1.13c.34.25,1.23.83,2.12.83.7,0,1.39-.36,1.39-1.63,0-2.25-3.6-2.04-3.6-4.98,0-1.53.93-2.4,2.49-2.4.76,0,1.48.18,1.77.25v1.03h0Z"/>
      <path class="st0" d="M235.14,70.56c0-1.37-.02-1.37-1.06-1.58v-.31h3.46c1.36,0,2.25.93,2.25,2.57,0,2.63-1.66,2.63-3.04,2.63h-.39v4.16h-1.22v-7.47h0ZM236.36,73.22h.58c.88,0,1.63-.36,1.63-2.03,0-1.56-.59-1.86-1.57-1.86-.6,0-.63.27-.63.83v3.06h0Z"/>
      <path class="st0" d="M242.7,70.45c-.35-1.26-.45-1.26-1.34-1.47v-.31h2.15l2.17,7.62h.02l2.12-7.62h.72l-2.7,9.35h-.96l-2.17-7.58h0Z"/>
      <path class="st0" d="M252.77,69.32h-.76c-.88,0-1.13.35-1.2,1.36h-.31l.04-2.02h5.67l.04,2.06h-.31c0-1.07-.35-1.41-1.21-1.41h-.75v8.7h-1.22v-8.7h0Z"/>
      <path class="st0" d="M258.09,77.21c0-.54.35-.99.8-.99s.8.44.8.99-.37.97-.8.97-.8-.42-.8-.97Z"/>
      <path class="st0" d="M268.48,70.5c0-1.17-.03-1.18-1.11-1.36v-.31l2.33-.32v7.81c0,.7.25,1.04.74,1.04h.95c.7,0,1.31-.06,1.31-1.36h.31l-.03,2.02h-4.5v-7.52h0Z"/>
      <path class="st0" d="M277.29,69.32h-.76c-.88,0-1.13.35-1.2,1.36h-.31l.04-2.02h5.67l.04,2.06h-.31c0-1.07-.35-1.41-1.21-1.41h-.75v8.7h-1.22v-8.7h0Z"/>
      <path class="st0" d="M283.55,70.56c0-1.37-.03-1.37-1.05-1.58v-.31h3.07c2.11,0,3.65.72,3.65,4.66,0,4.39-1.85,4.7-4.01,4.7h-1.65v-7.47h0ZM284.77,76.45c0,.54,0,.92.76.92,2.02,0,2.46-1.21,2.46-4.02,0-2.46-.23-4.03-2.32-4.03-.64,0-.91.1-.91.75v6.38Z"/>
      <path class="st0" d="M292.23,77.21c0-.54.35-.99.8-.99s.8.44.8.99-.37.97-.8.97-.8-.42-.8-.97Z"/>
    </g>
    <g>
      <path class="st0" d="M171.73,59.66h-15.31l-8.23-9.78h-17.57v9.78h-11.44v-18.9h32.17c3.54,0,6.3-1.6,6.3-4.14,0-2.87-2.38-4.31-6.3-4.31h-32.17l7.46-9.62h23.77c8.4,0,19.01,2.65,19.01,13.21,0,5.75-3.59,10.5-9.67,11.72,1.27.94,2.65,2.27,5.2,4.86l6.8,7.18h0Z"/>
      <path class="st0" d="M223.41,22.69l-7.41,9.62h-13.21v27.36h-11.44v-27.36h-17.35l7.41-9.62h42.01Z"/>
      <path class="st0" d="M265.64,45.9c-3.2-5.69-4.7-8.45-5.97-11.11-1.16,2.65-2.65,5.36-5.86,11.05l-5.91,10.5c-1.33,2.38-3.32,3.92-6.3,3.92s-5.42-1.66-6.41-5.09l-9.4-32.5h11.44l3.48,12.88c1.16,4.14,1.93,7.18,2.49,10.17,1.22-2.6,2.65-5.42,5.2-10.23l4.98-9.29c1.93-3.65,3.81-4.14,6.52-4.14s4.7.5,6.63,4.14l4.92,9.34c2.76,5.09,4.03,7.68,5.2,10.17.61-2.93,1.44-6.08,2.54-10.17l3.48-12.88h11.16l-9.56,32.5c-1,3.43-3.54,5.09-6.41,5.09s-4.92-1.49-6.3-3.92l-5.91-10.45h0Z"/>
    </g>
  </g>
  <g>
    <path class="st0" d="M51.85,59.26c.04-.05-5.57-7.21-5.57-7.21l4.46-1.3,6.26,4.58s8.5-3.21,16.23-6.14l-7.77-9.8,4.01-2.38,11.99,9.05c2-.76,3.45-1.32,3.94-1.52,4.85-1.95,8.05-3.09,10.47-3.26,2.24-.15,2.48,1.27,3.93,1.3.68.01,1.47.3,1.85.75-2.44-21.35-20.56-37.93-42.56-37.93-20.46,0-37.56,14.34-41.82,33.51-4.42,27.54,24.57,22.34,34.58,20.35h0Z"/>
    <path class="st0" d="M101.69,44.62c-.4.85-1.52,1.54-2.52,1.93-1.46.56-81.07,35.15-90,5.79,1.98,23.81,21.94,42.51,46.26,42.51,25.64,0,46.42-20.79,46.42-46.42,0-1.29-.06-2.56-.16-3.81h0ZM75.7,64.32l-.36-7.77,6.71-2.25-2.96,9.03-3.4.99Z"/>
  </g>
</svg>