<?xml version="1.0" encoding="UTF-8"?>
<svg id="Layer_1" xmlns="http://www.w3.org/2000/svg" xmlns:xlink="http://www.w3.org/1999/xlink" version="1.1" viewBox="0 0 150 150">
  <!-- Generator: Adobe Illustrator 29.4.0, SVG Export Plug-In . SVG Version: 2.1.0 Build 152)  -->
  <defs>
    <style>
      .st0 {
        fill: url(#linear-gradient);
      }

      .st1 {
        fill: #da0e29;
      }

      .st2 {
        fill: #fed9a0;
      }
    </style>
    <linearGradient id="linear-gradient" x1="165.84" y1="566.19" x2="134.64" y2="523.76" gradientTransform="translate(-15.6 -463.59)" gradientUnits="userSpaceOnUse">
      <stop offset=".18" stop-color="#fed9a0"/>
      <stop offset=".31" stop-color="#ecc890"/>
      <stop offset=".57" stop-color="#bf9a66"/>
      <stop offset=".75" stop-color="#9e7947"/>
    </linearGradient>
  </defs>
  <path class="st1" d="M49.34,81.38c1.21-.69,1.98-1.99,1.98-3.57,0-3.51-2.52-4.67-6.99-4.67h-7.76v11.9h3.81v-2.49h3.97c.6,0,1.16-.03,1.68-.09.71.69,1.32,1.8,1.57,2.57h3.95c-.42-1.27-1.25-2.77-2.19-3.64h-.02ZM44.51,79.79h-4.14v-3.92h4.14c2.01,0,3.15.36,3.15,1.93-.02,1.58-1.14,1.99-3.15,1.99Z"/>
  <path class="st1" d="M33.49,73.13h-3.81v11.9h3.81v-11.9Z"/>
  <path class="st1" d="M64.19,73.13h-3.81v11.9h3.81v-11.9Z"/>
  <path class="st1" d="M106.87,73.13h-3.81v11.9h3.81v-11.9Z"/>
  <path class="st1" d="M93.14,73.13h-7.52v11.9h7.52c4.42,0,7.68-1.99,7.68-5.96s-3.26-5.94-7.68-5.94ZM92.68,82.19h-3.26v-6.22h3.26c2.84,0,4.34,1,4.34,3.1s-1.51,3.12-4.34,3.12Z"/>
  <path class="st1" d="M78.89,78.55c-2.27-2.54-5.02-4.37-8.42-5.42h-3.23v11.9h3.65v-8.04c3.48,1.13,6.69,4.67,8.28,8.04h3.35v-11.9h-3.65v5.42h.02Z"/>
  <path class="st1" d="M16.83,73.13c-2.51,2.84-6.04,7.62-6.04,11.9h3.79c0-.64.08-1.3.24-1.94h8.64c.16.66.24,1.3.24,1.94h3.79c0-4.28-3.53-9.06-6.03-11.9h-4.63ZM15.69,80.58c.92-2.02,2.27-3.9,3.45-5.27,1.18,1.36,2.52,3.24,3.45,5.27h-6.9Z"/>
  <path class="st1" d="M119.72,73.13h-4.62c-2.51,2.84-6.03,7.62-6.03,11.9h3.79c0-.64.08-1.3.23-1.94h8.64c.16.66.23,1.3.23,1.94h3.79c0-4.3-3.53-9.06-6.03-11.9h0ZM113.95,80.58c.92-2.02,2.27-3.9,3.45-5.27,1.18,1.36,2.52,3.24,3.45,5.27,0,0-6.9,0-6.9,0Z"/>
  <path class="st0" d="M139.11,80.65c.31-2.32-.25-4.33-.72-5.64-.33-.92-.6-1.66-.83-2.32-1.07-2.99-1.27-3.54-2.01-6.54l-.25-.99-.97-.31c-2.95-.96-3.46-1.19-6.38-2.49-.64-.28-1.36-.61-2.26-1-1.05-.45-2.65-1.08-4.58-1.14-2.96-.11-5.8,1.1-8.45,3.57l.05-.02c-.67.6-1.36,1.29-2.07,2.08,0,0,.02.05.17-.08.93-.75,3.95-3.57,12.18.13,4.04,1.82,7.93,3.43,7.93,3.43,0,0,1.27,4,2.73,8.2,2.96,8.51-.11,11.29-.94,12.13-.13.14-.08.16-.08.16,1.19-.86,2.15-1.72,2.95-2.57,2.01-2.02,3.2-4.23,3.53-6.6h0Z"/>
  <path class="st2" d="M135.32,65.14l-.97-.31c-2.95-.96-3.46-1.19-6.38-2.49-.64-.28-1.36-.61-2.26-1-1.05-.45-2.65-1.08-4.58-1.14-2.96-.11-5.8,1.1-8.45,3.57l.05-.02c-.67.6-1.36,1.29-2.07,2.08,0,0,.02.05.17-.08.92-.75,3.95-3.57,12.18.13,4.04,1.82,7.93,3.43,7.93,3.43l4.37-4.17h.01Z"/>
</svg>