<?xml version="1.0" encoding="UTF-8"?>
<svg id="Layer_1" xmlns="http://www.w3.org/2000/svg" version="1.1" viewBox="0 0 150 150">
  <!-- Generator: Adobe Illustrator 29.4.0, SVG Export Plug-In . SVG Version: 2.1.0 Build 152)  -->
  <defs>
    <style>
      .st0 {
        fill: #e23546;
      }
    </style>
  </defs>
  <path class="st0" d="M82.95,35.94c-.69.66-1.65,2.37-1.65,4.77v14.82c0,1.23-.46,2.4-1.19,3.07-.39.35-2.8,2.55-2.95,2.66h1.39c.42-.4,4.82-4.27,5.27-4.8.6-.68,2.02-2.4,2.02-5.11,0-.64.01-13.67.01-14.24,0-2.14.99-3.32,1.51-3.89.53-.59,2.19-2.03,2.62-2.41h-1.38c-.4.35-5.19,4.68-5.67,5.13"/>
  <path class="st0" d="M72.07,89.91l5.38,4.7h3.61c3.66,0,7.01-1.57,9.22-3.78s3.03-5.18,3.03-7.96v-7.71c0-2.59-1.62-4.1-2.08-4.55-.25-.24-1.82-1.72-1.82-1.72v5.92s1.73,1.78,2.07,2.14c1.6,1.7,1.58,4.79-3.47,9.71-.89.86-3.41,3.25-6.89,3.25h-9.05"/>
  <path class="st0" d="M93.96,62.59s1.54,1.77,2.15,2.25c2.04,1.6,2.93-.23,1.62-2.32-.31-.5-1.58-1.34-3.77.07M87.03,58.28c-.6.63-1.17,2.18-1.17,3.55v2.92h2.95c1.15,0,2.19-.86,3-1.6.02-.04,0-2.9,0-2.9,0,0,.76.87,1.43,1.57.99-.91,3.55-3.58,5.41-3.58,3.77,0,2.91,4.72,1.37,6.24-.5.49-2.72,2.53-3.41,3.18-1.78,1.69-4.82.88-4.82-3.49,0,0-3.26,3.1-3.76,3.51s-2.18,2.2-2.18,2.2v7.69c0,3.69-1.12,5.02-2.22,6.04-.49.45-4.45,4.05-5.17,4.68h-1.41s2.55-2.23,3.04-2.73c.56-.57,1.2-1.74,1.2-3.69,0-.49-.06-12.08-.06-12.08h-18.89c-6.57,0-7.97-7.29-8.01-9.24,0-.58,0-6.4,0-7.3,0-1.2-.77-3.22-1.99-3.84h1.85c.22.09,1.38.56,1.38,5.03,0,0-.08,5.2-.08,5.48,0,2.27,1.8,4.87,4.41,4.87.53,0,21.38-.02,21.38-.02.02-.58.6-2.76,1.63-3.91.58-.65,5.17-4.85,5.69-5.25h1.36c-.2.17-2.42,2.16-2.92,2.69v-.02Z"/>
  <path class="st0" d="M71.13,76.43c0,1.03-3.29,3.77-3.49,3.97-.24-1.11-1.07-2.34-3.53-4.8l3.61-3.61c2.42,2.42,3.41,2.93,3.41,4.44"/>
  <path class="st0" d="M64.82,55.21c-.99,1.03-1.16,1.3-2.08,1.85h11.29c3.06,0,2.45-1.9,1.9-2.86-1.12-1.97-4.67-5.61-4.67-5.61,0,0-6.22,6.4-6.43,6.62M77.39,35.07c.73.73,2.28,2.69,1.35,3.62-.83.83-2.11,2.14-2.11,2.14-.06-.48-1.26-1.61-1.26-1.61,0,0,.01,3.48,0,3.92-.04,1.57-.64,2.02-.64,2.02,0,0,2.91,2.88,2.91,6.59v3.81c0,.76-.19,1.35-.72,1.93-.26.29-2.95,3-3.37,3.37-.78.7-1.6.82-2.22.82h-10.02c-1.58,0-3.21-1.23-3.21-2.47,0-.31.02-3.71.02-3.71.51.59,1.04,1.29,2.3,1.27.99-.02,2.02-.79,2.3-1.07.28-.29,7.58-7.91,7.58-7.91,0,0-3.42-3.17-5.67-4.67-1.1-.73-2.55.19-2.77,1.16-.69,3.03,0,7.58,0,7.58,0,0-2.23-2.23-2.77-2.76-1.12-1.12-1.07-3.65.25-4.97.21-.21,2.23-2.49,4.8-2.49h4c2.68,0,5.58,2.63,5.58,2.63,0,0,.43-.48.43-.93,0-1.38-.01-5.04-.01-5.04-2.02-2.02-2.29-4.1-1.32-5.07,1.8-1.81,2.46-2.44,2.46-2.44,0,0-.02,2.19,2.08,4.29h.03Z"/>
  <path class="st0" d="M51.95,65.48h-1.85s1.99,1.1,1.99,3.92v9.01c0,5.86,4.83,11.28,10.71,11.28h4.9c2.94,0,3.98-.71,5.76-2.29.65-.58,1.5-1.53,1.81-1.88,1.02-1.15,2.11-2.07,2.11-5.1v-2.95c0-2.55-1.48-3.61-2.18-4.32-.46-.46-1.72-1.66-1.72-1.66v6.04s1.23,1.32,1.78,1.75c2.54,2.01.52,5.52-1.85,5.52h-10.77c-4.15,0-9.33-3.44-9.33-9.39v-4.9c0-5.03-1.38-5.03-1.38-5.03"/>
  <path class="st0" d="M63.76,76.45c0,1.03-3.3,3.77-3.49,3.96-.24-1.11-1.07-2.34-3.53-4.8l3.61-3.61c2.42,2.42,3.41,2.94,3.41,4.44"/>
  <path class="st0" d="M26.02,116.54h-5.77c-1.81,0-1.66-1.52-1.82-2.79v-8.3s1.27-.03,2.66-.03c1.6,0,3.61-.24,5.55.86,0,0-1.4-3.35-5.56-3.35h-2.65v-2.66s0-2.32-.57-2.99c0,0,3.54.01,3.79.01,3.31,0,5.87-.05,8.54,1.7,0,0-.51-4.36-6.92-4.36h-12.46s2.22,1.86,2.09,5.62l.13,15.08c0,3.82,1.48,3.88,1.48,3.88h12.27c2.79,0,3.76-1.96,3.76-3.05l.04-1.46s-.89,1.83-4.56,1.83"/>
  <path class="st0" d="M58.68,115.25v-10.55c0-4.09-3.37-5.18-5.85-5.18-3.28,0-4.28,2.77-4.7,3.69-.74-2.56-3.33-3.73-5.44-3.73-3.96,0-4.97,3.79-4.97,3.79,0,0-.1-3.65-3.31-3.65h-3.13s1.8.75,1.8,3.91v11.71c0,3.9,1.57,3.94,1.57,3.94h5.2c-.14-.04-2-1.45-2-3.97v-10.39c.07-.47.85-2.02,3.09-2.02,1.23,0,2.61,1.3,2.59,2.78v9.65c0,3.93,1.54,3.94,1.54,3.94h5.21s-2-1.39-2-3.98l-.02-10.39c.19-.58.88-1.98,2.85-1.98,1.54,0,2.83,1.3,2.79,2.79,0,0,0,8.81,0,9.63.03,3.95,1.55,3.92,1.55,3.92,2.72,0,5.22.01,5.22.01,0,0-1.99-1.37-1.99-3.94"/>
  <path class="st0" d="M67.74,115.25c0,2.6,2,3.94,2,3.94,0,0-2.48-.01-5.19-.01,0,0-1.55.02-1.55-3.9v-11.77c0-3.09-1.79-3.89-1.79-3.89h3.1c1.11,0,3.42,0,3.42,4.38v11.23l.02.02"/>
  <path class="st0" d="M83.68,101.1s-.5-1.41-2.65-1.41c-3.26,0-4.05,3.85-4.05,3.85-.27-3.04-1.09-3.94-3.34-3.94h-3.15s1.83.76,1.83,3.91v11.73c0,3.91,1.55,3.94,1.55,3.94h5.15c-.13-.04-1.99-1.45-1.99-3.98v-9.59c.13-.88.59-1.54,1.28-2,1.7-1.08,4.04-.82,5.38.79v-3.3"/>
  <path class="st0" d="M107.76,101.82c1.76,0,3.07.77,3.07.77v-2.96h-4.33v-4.48s-1.12,1.99-3.47,3.89c-1.47,1.21-4.56,2.71-4.56,2.71l3.3.06v13.61c0,3.77,1.58,3.77,1.58,3.77,2.84,0,5.14.01,5.14.01,0,0-1.98-1.35-1.98-3.82v-13.56c1.35,0,.41,0,1.26,0"/>
  <path class="st0" d="M120.31,106.48c.86-1.59,1.54-5.61-1.4-5.39-3.37.25-2.72,9.28-2.72,9.28,1.12-1.24,2.81-1.49,4.12-3.89M123.5,107.73c-2.91,3.02-5.2,2.54-6.98,4.77,0,0,.29,3.01,2.55,4.07.79.36,3.99,1.39,6.06-2.23v3.44s-1.34,1.43-5.57,1.43c-5.05,0-8.54-3.99-8.54-9.4s2.85-10.27,8.18-10.29c5.27-.03,8.13,4.2,4.3,8.21Z"/>
  <path class="st0" d="M65.32,98.03c1.34,0,2.43-1.04,2.43-2.35s-1.09-2.38-2.43-2.38-2.37,1.06-2.37,2.38,1.03,2.35,2.37,2.35"/>
  <path class="st0" d="M134.9,113.87c.04,1.39-1.19,3.22-3.83,3.22s-3.72-2.78-3.72-2.78l-.02,3.5s1.91,1.39,4.91,1.39h0c3.56,0,7.08-2.67,6.97-6.41-.04-1.33-.49-2.45-1.2-3.42-1.21-1.58-3.39-2.76-5.11-3.75-2.34-1.36-2.03-4.27,1.41-4,2.58.21,3.67,2.69,3.67,2.69v-3.26s-1.99-1.57-4.98-1.57-5.88,2.06-5.8,4.68c.07,2.32,1.01,3.83,2.91,5.21.75.56,1.65,1.11,2.69,1.69,1.52.83,2.08,1.87,2.11,2.83"/>
  <path class="st0" d="M92.54,103.93c0,1.92-1.62,2.77-2.69,3.24-3.09,1.35-7.04,2.84-7.04,7.33,0,3,2.18,4.73,5.24,4.73,2.34,0,3.52-1.21,4.1-2.35.35,2.21,1.46,2.31,1.46,2.31,2.7,0,5.18.02,5.18.02,0,0-2.02-1.37-2.02-3.94v-10.99c0-2.64-2.92-4.68-6.02-4.68s-4.86,1.44-4.86,1.44v3.41s1.06-2.7,3.76-2.7c2.24,0,2.89,1.1,2.89,2.2M89.74,116.96c-1.63,0-2.74-.88-2.74-2.73,0-4.41,4-5.32,5.08-6.62v8.23s-.73,1.12-2.34,1.12Z"/>
</svg>