<?xml version="1.0" encoding="UTF-8"?>
<svg id="Layer_1" xmlns="http://www.w3.org/2000/svg" version="1.1" viewBox="0 0 150 150">
  <!-- Generator: Adobe Illustrator 29.4.0, SVG Export Plug-In . SVG Version: 2.1.0 Build 152)  -->
  <defs>
    <style>
      .st0 {
        fill: #c89801;
      }
    </style>
  </defs>
  <polygon class="st0" points="79.33 47.58 81.05 45.84 82.62 47.43 82.77 47.56 81.05 49.3 79.33 47.58"/>
  <polygon class="st0" points="82.79 47.58 84.51 45.84 86.07 47.43 86.22 47.58 84.51 49.3 82.79 47.58"/>
  <path class="st0" d="M80.45,64.74c-.47,0-.79-.17-.82-.19-.67-.26-1.03-.99-1.03-2.02,0-.17,0-.28.02-.34v-.28h-14.61v-13.15c0-.56-.37-.71-.67-.88-.26-.13-.52-.28-.58-.64v-.21c2.02-1.48,3.48-3.42,3.48-3.42v16.07h12.39v-.62c-.02-.56-.06-1.7-2.77-1.72,0,0-1.27.02-2.53.02-.71,0-1.42,0-1.89-.02-.77-.06-1.2-.92-1.22-1.7,0-.54.21-.97.56-1.2l.19-.13.11.19c.24.47,1.27.69,3.2.69h.19c.77,0,1.65-.02,2.66-.04h.17c3.29,0,3.65,2.86,3.67,4.08v.47h3.24v-4.85s.04-.37-.62-.73c-.45-.26-.56-.77-.56-.77,2.62-1.89,3.35-3.52,3.35-3.52v12.09h-5.46v.17c0,.73.13,1.68.56,2l.24.19-.26.15c-.32.21-.69.32-1.03.32"/>
  <path class="st0" d="M54.33,63.73v-1.83h-7.5v-2.26h9.54v2.96s-.11.92,1.7.92c1.14,0,1.14-1.1,1.14-1.14v-5.28c0-.73-.49-.84-.84-.84h-11.51v-6.59s1.33,1.65,2.66,2.43c.21.13.11.49-.56.92-.13.09-.3.15-.3.34v.82h11.41c1.33.02,1.46,1.42,1.46,1.85v7.56s-.11,2.04-3.37,2.04c-4.06.02-3.82-1.91-3.82-1.91"/>
  <path class="st0" d="M99.63,61.91v-18.39l.39.62s.28.47,1.46,1.48c.69.6,1.07.84,1.27.92.19.09.37.15.37.37v.19c-.04.39-.32.54-.58.67-.3.17-.6.32-.62.88-.04.43,0,13.25,0,13.25h-2.29Z"/>
  <path class="st0" d="M88.89,64.29l2.3-2.32-2.79-2.75v-15.7s1.22,2.32,2.86,3.48v.17c-.04.37-.26.52-.45.64-.26.17-.49.32-.52.9-.02.41,0,9.17,0,9.32l2.32,2.41,2.32-2.41s.02-8.89,0-9.32c-.02-.58-.26-.73-.52-.9-.21-.13-.43-.28-.45-.64v-.13c1.83-1.18,2.86-3.54,2.86-3.54v15.49l-2.79,2.94,2.32,2.32-3.72,3.74-3.74-3.69h0ZM92.63,65.84l1.55-1.57-1.55-1.55-1.57,1.55,1.57,1.57Z"/>
  <path class="st0" d="M83,85.41l3.93-4.23v-8.36c0-.06.09-.13.09-.13l.58-.28v-.47h-5.28v.47l.54.34c.15.09.17.15.17.21v4.79h-10.57l-2.38,3.03v-7.8l.02-.15s.04-.04.13-.09l.49-.32.04-.02v-.47h-5.26v.47l.52.34c.09.04.11.09.13.09h0v14.35l-.02.19s-.06.06-.11.09l-.52.34v.47h5.26v-.47l-.56-.34c-.09-.04-.13-.06-.13-.06h0v-6.57l.56.17.73-.43c.13-.09.26-.13.32-.15.04-.02.13-.04.3-.04h11.02v5.03h0Z"/>
  <path class="st0" d="M139.13,78.32c-.62-1.95-2.04-3.57-4.21-4.77-1.95-1.1-4.75-1.63-8.51-1.63h-14.35v.47s.6.41.62.41h0v1.7h13.7c2.77,0,4.79.37,6.04,1.1,1.95,1.14,2.92,2.62,2.92,4.53,0,.97-.26,1.83-.75,2.6s-1.27,1.42-2.28,1.95c-1.33.69-3.35,1.03-6.01,1.03h-7.15v-10.03h-3.91v11.51l-.02.17-.11.11-.47.3-.04.02v.47h11.73c2.26,0,4.02-.13,5.26-.39,1.7-.37,3.22-.97,4.49-1.85,1.31-.88,2.23-1.89,2.77-3.01.41-.82.6-1.74.6-2.71-.04-.69-.13-1.35-.32-2"/>
  <path class="st0" d="M87.58,87.64c-.11-.02-.17-.04-.21-.06l9.84-10.22-2.28-2.43-12.74,13.32h5.86v-.56h-.21c-.09-.02-.17-.02-.26-.04"/>
  <path class="st0" d="M95.98,74.28l2.51,2.66,2.6,2.62h-4.38l-2.41,2.51.52.37.56-.3c.06-.02.11-.04.15-.04h7.93l5.18,5.54s-.09.09-.54.09h-.19v.56h5.86l-15.53-16.37s-2.26,2.36-2.26,2.36Z"/>
  <path class="st0" d="M58.34,72.41l.52.34c.13.09.19.15.19.21v14.18l-.04.19s-.11.09-.15.11l-.54.34v.47h5.24v-.47l-.47-.34c-.06-.04-.11-.09-.11-.09h-.02v-14.39l.02-.15.13-.11.47-.32v-.47h-5.24v.49h0Z"/>
  <path class="st0" d="M36.39,85.13l-.69.39c-.19.11-.28.15-.3.15l-11.71.02c-2.69,0-4.7-.34-6.06-1.03-2.02-1.05-3.01-2.53-3.01-4.58,0-.9.26-1.78.77-2.58,1.01-1.48,2.47-2.49,4.55-2.88.56-.11,1.1-.13,1.44-.13h6.04c.37-.02.3.06.32.11l-.06.43h.49l2.58-3.11h-7.2c-1.68,0-2.96.06-3.87.17-.47.06-.92.15-1.37.24-1.18.28-2.32.71-3.42,1.33-1.78,1.03-3.03,2.3-3.76,3.8-.41.86-.62,1.83-.6,2.86,0,2.64,1.42,4.75,4.21,6.25,1.27.69,2.69,1.18,4.23,1.42,1.16.19,2.73.28,4.7.28h10.89l2.6-3.16h-.21l-.58.02h.02Z"/>
  <path class="st0" d="M31.19,81.2l2.53-3.18h-17.08l-1.72,2.56h15.4c.28.02.39.11.41.15l-.06.45h.52v.02Z"/>
  <path class="st0" d="M30.14,74.92l.49.17.06.02.75-.37c.21-.13.41-.19.62-.19h9.41v12.65l-.04.17s-.09.09-.11.09l-.54.37v.47h5.26v-.47l-.54-.34-.13-.13v-12.8h8.38c.32.04.37.11.37.13v.45h.47l2.6-3.16h-24.68l-2.38,2.94h.01Z"/>
  <polygon class="st0" points="34.31 106.27 38.28 96.23 39.57 96.23 43.5 106.27 41.46 106.27 40.66 104.18 38.06 104.18 37.51 102.76 40.13 102.76 39.1 99.99 38.82 99.13 38.54 99.99 36.17 106.27 34.31 106.27"/>
  <rect class="st0" x="48.44" y="96.23" width="1.95" height="10.03"/>
  <path class="st0" d="M61.69,106.27l-2.3-3.29h-1.12v3.29h-1.95v-10.03h3.22c1.18,0,2.08.26,2.71.79s.92,1.33.92,2.38c0,.77-.17,1.46-.54,2.02-.34.58-.86.99-1.5,1.25l2.73,3.54h-2.17v.04h0ZM58.3,101.6h1.27c1.1,0,1.65-.67,1.65-1.98,0-.6-.13-1.05-.39-1.37s-.69-.47-1.29-.47h-1.25v3.82h0Z"/>
  <polygon class="st0" points="70.72 106.27 67.75 96.23 69.77 96.23 71.62 103.39 71.7 103.39 73.49 97.84 72.97 96.23 74.88 96.23 77.2 103.39 77.25 103.39 79.11 96.23 81.03 96.23 78 106.27 76.34 106.27 74.32 100.06 72.3 106.27 70.72 106.27"/>
  <polygon class="st0" points="84.25 106.27 88.22 96.23 89.51 96.23 93.44 106.27 91.42 106.27 90.63 104.18 88.01 104.18 87.45 102.76 90.09 102.76 89.04 99.99 88.76 99.13 88.48 99.99 86.12 106.27 84.25 106.27"/>
  <polygon class="st0" points="99.54 106.27 99.54 102.16 96.26 96.23 98.43 96.23 100.59 100.47 102.85 96.23 104.76 96.23 101.48 102.16 101.48 106.27 99.54 106.27"/>
  <path class="st0" d="M111.72,106.5c-1.05,0-1.91-.21-2.56-.67v-2.04c.77.69,1.63,1.03,2.6,1.03,1.2,0,1.8-.47,1.8-1.4,0-.37-.13-.64-.37-.84s-.67-.37-1.27-.52l-.37-.09c-1.7-.41-2.53-1.37-2.53-2.88,0-.99.3-1.74.92-2.3.62-.54,1.5-.82,2.64-.82s1.95.21,2.56.64v2.04c-.28-.26-.64-.49-1.12-.69-.47-.21-.99-.3-1.53-.3-.58,0-.99.11-1.25.3s-.39.49-.39.92c0,.37.11.67.32.84.21.19.62.37,1.22.52l.37.09c.9.21,1.57.54,2,.99.43.43.62,1.05.62,1.85,0,1.03-.32,1.83-.95,2.43-.58.58-1.5.88-2.75.88"/>
</svg>