<?xml version="1.0" encoding="UTF-8"?>
<svg id="Layer_1" xmlns="http://www.w3.org/2000/svg" version="1.1" viewBox="0 0 150 150">
  <!-- Generator: Adobe Illustrator 29.4.0, SVG Export Plug-In . SVG Version: 2.1.0 Build 152)  -->
  <defs>
    <style>
      .st0 {
        fill: #006496;
      }

      .st0, .st1 {
        fill-rule: evenodd;
      }

      .st1 {
        fill: #ff8200;
      }
    </style>
  </defs>
  <path class="st1" d="M42.19,67.51v11.71c0,1.08-.47,2.69-4.78,2.69s-4.78-1.61-4.78-2.69v-11.71h-2.46v11.85c0,2.9,2.38,4.16,6.81,4.16,2.26,0,3.92-.38,5.18-.74v5.3h2.41v-20.58h-2.38ZM19.97,61.92c-2.58,0-6.41.54-6.41,3.2v2.39h-2.79v1.37h2.79v14.27h2.34v-14.27h3.69v-1.37h-3.68v-2.11c0-2.04,2.36-2.37,4.06-2.37,2.82,0,4.23.21,4.23,3.33v16.77h2.34v-20.85h-2.34c-1.3,0-1.93-.38-4.23-.38v.02ZM136.66,69c-1.42,0-2.56,1.16-2.56,2.6s1.15,2.6,2.56,2.6,2.57-1.16,2.57-2.6-1.15-2.6-2.57-2.6Z"/>
  <path class="st0" d="M117.95,71.05c1.82-.21,3.46-.31,4.48-.31-.57-2.2-3.15-3.06-7.42-3.06-3.69,0-6.97,1.29-6.97,1.29v3.06s2.28-1.85,7.04-1.85c1.56,0,2.42.28,2.88.88h-.01ZM61.1,78.74c-.13,1.7-1.94,2.61-3.69,2.61-3.81,0-4.34-1.67-4.34-5.49s.75-5.48,4.15-5.48c2.21,0,3.75.91,3.88,2.6.11,1.37.16,2.07.16,2.88s-.06,1.59-.16,2.88ZM61.26,68.6c-1.57-.61-2.77-.94-4.71-.94-5.94,0-7.75,2.26-7.75,8.19s2.66,8.2,8.6,8.2c3.62,0,6.25-1.37,8.12-1.37v-19.86h-4.26v5.77h0ZM130.38,68.03h-4.26v2.58h4.26v-2.58ZM118.45,78.69c0,2.24-2.07,2.8-3.49,2.8-2.42,0-3.66-.74-3.66-2.32,0-2.67,3.39-4.05,7.14-4.28v3.79h.01ZM131.28,72.13h-1.24c-17.27,0-22.86,3.24-22.86,6.94,0,3.44,2.92,4.95,7.67,4.95,3.06,0,6.15-1.34,7.77-1.34v-8.33c2.02-.25,3.53-.3,3.53-.3v9.63h4.26v-7.25c0-2.59.87-4.3.87-4.3h0ZM96.35,81.35c-1.76,0-3.57-.92-3.7-2.61-.11-1.29-.16-2.06-.16-2.88s.06-1.51.16-2.88c.13-1.7,1.68-2.6,3.89-2.6,3.41,0,4.15,1.66,4.15,5.48s-.53,5.49-4.34,5.49ZM97.2,67.67c-1.94,0-3.14.32-4.71.94v-5.78h-4.26v19.86c1.87,0,4.5,1.37,8.12,1.37,5.94,0,8.6-2.29,8.6-8.2s-1.81-8.19-7.75-8.19h0ZM80.46,78.84c0,1.08-.35,2.69-3.54,2.69s-3.54-1.61-3.54-2.69v-10.8h-4.26v11.85c0,2.9,2.96,4.17,7.38,4.17,3.92,0,6.44-1.21,7.69-1.34l.53-.06v-14.62h-4.26v10.8h0Z"/>
</svg>