<?xml version="1.0" encoding="UTF-8"?>
<svg id="Layer_1" xmlns="http://www.w3.org/2000/svg" version="1.1" viewBox="0 0 150 150">
  <!-- Generator: Adobe Illustrator 29.4.0, SVG Export Plug-In . SVG Version: 2.1.0 Build 152)  -->
  <defs>
    <style>
      .st0 {
        fill: #001b94;
      }
    </style>
  </defs>
  <path id="Combined-Shape" class="st0" d="M134.3,71.01c0,.6-.47,1.07-1.07,1.07s-1.07-.47-1.07-1.07.47-1.07,1.07-1.07,1.07.47,1.07,1.07ZM131.11,67.8c0,.6-.47,1.07-1.07,1.07s-1.07-.47-1.07-1.07.47-1.07,1.07-1.07,1.07.49,1.07,1.07ZM134.3,67.8c0,.6-.47,1.07-1.07,1.07s-1.07-.47-1.07-1.07.47-1.07,1.07-1.07,1.07.49,1.07,1.07ZM127.91,67.8c0,.6-.47,1.07-1.07,1.07s-1.07-.47-1.07-1.07.47-1.07,1.07-1.07,1.07.49,1.07,1.07ZM136.11,64.39c.41.41.41,1.09,0,1.52-.41.41-1.09.41-1.5,0s-.41-1.09,0-1.52c.41-.41,1.07-.41,1.5,0ZM138.76,62.27c.41.41.41,1.09,0,1.52-.41.41-1.09.41-1.5,0s-.41-1.09,0-1.52,1.09-.43,1.5,0ZM124.19,67.8c0,.6-.47,1.07-1.07,1.07s-1.07-.47-1.07-1.07.47-1.07,1.07-1.07,1.07.49,1.07,1.07ZM121.01,67.8c0,.6-.47,1.07-1.07,1.07s-1.07-.47-1.07-1.07.47-1.07,1.07-1.07,1.07.49,1.07,1.07ZM133.23,73.14c.58,0,1.07.47,1.07,1.07s-.47,1.07-1.07,1.07-1.07-.47-1.07-1.07.49-1.07,1.07-1.07ZM121.55,83.78c0,.6-.47,1.07-1.07,1.07s-1.07-.47-1.07-1.07.47-1.07,1.07-1.07c.6.02,1.07.49,1.07,1.07ZM118.36,80.6c0,.6-.47,1.07-1.07,1.07s-1.07-.47-1.07-1.07.47-1.07,1.07-1.07,1.07.47,1.07,1.07ZM121.55,80.6c0,.6-.47,1.07-1.07,1.07s-1.07-.47-1.07-1.07.47-1.07,1.07-1.07,1.07.47,1.07,1.07ZM115.18,80.6c0,.6-.47,1.07-1.07,1.07s-1.07-.47-1.07-1.07.47-1.07,1.07-1.07,1.07.47,1.07,1.07ZM120.48,85.91c.58,0,1.07.47,1.07,1.07s-.47,1.07-1.07,1.07-1.07-.47-1.07-1.07c.02-.58.49-1.07,1.07-1.07ZM133.23,76.32c.58,0,1.07.47,1.07,1.07s-.47,1.07-1.07,1.07-1.07-.47-1.07-1.07.49-1.07,1.07-1.07ZM133.23,80.06c.58,0,1.07.47,1.07,1.07s-.47,1.07-1.07,1.07-1.07-.47-1.07-1.07.49-1.07,1.07-1.07ZM126.33,75.79c0,.6-.47,1.07-1.07,1.07s-1.07-.47-1.07-1.07.47-1.07,1.07-1.07c.6.02,1.07.49,1.07,1.07ZM128.15,72.37c.41.41.41,1.09,0,1.52-.41.41-1.09.41-1.5,0s-.41-1.09,0-1.52c.41-.41,1.07-.41,1.5,0ZM130.79,70.26c.41.41.41,1.09,0,1.52-.41.41-1.09.41-1.5,0s-.41-1.09,0-1.52c.41-.43,1.09-.43,1.5,0ZM123.9,77.18c.41.41.41,1.09,0,1.52-.41.41-1.09.41-1.5,0s-.41-1.09,0-1.52c.41-.43,1.07-.43,1.5,0ZM81.89,84.89c-2.48,2.09-5.38,3.16-8.71,3.16-3.59,0-6.68-1.26-9.29-3.76-2.58-2.54-3.89-5.62-3.89-9.25s1.3-6.71,3.89-9.25c2.61-2.56,5.7-3.84,9.29-3.84,2.11,0,3.97.34,5.6,1.05,1.6.68,3.23,1.84,4.85,3.46l.13.13-2.5,2.71-.15-.13c-1.6-1.32-2.82-2.22-3.69-2.69-1.28-.68-2.69-1-4.23-1-2.67,0-4.87.94-6.64,2.8-1.77,1.86-2.67,4.12-2.67,6.75s.9,4.85,2.67,6.73c1.77,1.86,3.99,2.8,6.64,2.8,2.46,0,4.55-.7,6.24-2.14,1.77-1.47,2.67-3.35,2.71-5.66h-8.69v-3.5h12.6v2.31c.02,3.89-1.37,6.98-4.14,9.33ZM103.56,85.42c-1.77,1.71-3.91,2.56-6.39,2.56s-4.59-.85-6.36-2.56-2.67-3.89-2.67-6.49.88-4.76,2.63-6.45c1.77-1.73,3.91-2.58,6.39-2.58s4.59.85,6.36,2.58c1.82,1.71,2.71,3.87,2.71,6.45s-.88,4.78-2.67,6.49ZM101.04,74.81c-1-1.05-2.29-1.58-3.87-1.58s-2.88.53-3.91,1.58c-.98,1.03-1.47,2.39-1.47,4.12s.51,3.05,1.52,4.12c1,1.05,2.29,1.58,3.87,1.58s2.86-.53,3.87-1.58,1.52-2.41,1.52-4.12c0-1.69-.51-3.05-1.52-4.12ZM57.35,68.06c-.36.41-.88.6-1.54.6-.62,0-1.13-.19-1.54-.6-.36-.43-.56-.92-.56-1.5s.19-1.07.56-1.45c.38-.41.9-.6,1.54-.6s1.13.21,1.5.64c.38.38.6.88.6,1.41,0,.6-.17,1.11-.56,1.5ZM54.03,87.62v-17.39h3.55v17.39h-3.55ZM49.12,85.34c-1.64,1.75-3.76,2.63-6.32,2.63-2.71,0-4.93-.94-6.62-2.82-1.58-1.77-2.37-3.99-2.37-6.66,0-2.41.81-4.44,2.46-6.11,1.67-1.69,3.63-2.52,5.94-2.52,1.82,0,3.46.41,4.93,1.2l.11.06v3.78l-.3-.21c-.58-.38-1.28-.73-2.07-1.03-.77-.3-1.47-.45-2.11-.45-1.64,0-2.95.51-3.93,1.54-.98,1.03-1.47,2.39-1.47,4.12s.51,3.08,1.52,4.14c1.03,1.05,2.35,1.58,3.97,1.58,1.52,0,2.76-.58,3.76-1.71,1-1.13,1.52-2.82,1.52-5.04v-15.48h3.5v16.04c0,2.86-.83,5.17-2.5,6.94ZM28.15,87.62v-10.12c0-1.24-.38-2.24-1.15-3.03-.75-.81-1.67-1.22-2.8-1.22-1.07,0-1.99.41-2.8,1.22-.77.79-1.15,1.79-1.15,3.03v10.12h-3.5v-10.12c0-2.24.7-4.08,2.09-5.49,1.41-1.43,3.2-2.14,5.36-2.14s3.93.7,5.36,2.14,2.14,3.27,2.14,5.49v10.12h-3.55ZM10.94,87.62v-25.24h3.72v25.24h-3.72Z"/>
</svg>