<?xml version="1.0" encoding="UTF-8"?>
<svg id="Layer_1" xmlns="http://www.w3.org/2000/svg" version="1.1" viewBox="0 0 150 150">
  <!-- Generator: Adobe Illustrator 29.4.0, SVG Export Plug-In . SVG Version: 2.1.0 Build 152)  -->
  <defs>
    <style>
      .st0 {
        fill: #bd9f5b;
      }

      .st1 {
        fill: #b4b3b3;
      }
    </style>
  </defs>
  <g id="Layer_x5F_1">
    <g id="_1456032012800">
      <path class="st0" d="M79.42,31.01c-2.54,0-4.36-.02-6.43,1.02-.8.39-1.37.8-2.06,1.3-.39.28-1.56,1.32-1.72,1.74.85,1.13,3.28,3.39,4.34,4.32l4.8,3.93c.3-.35.54-2,2.87-3.23,5.64-3,14.44-.74,20.95-3.67,3.06-1.39,4.99-2.76,7.16-5.17.61-.67,2.21-2.91,2.3-3.89-.09.02-2.21,1.13-3.08,1.45-6.14,2.32-13.66,2.76-20.3,2.56-2.95-.09-5.82-.37-8.84-.37h0Z"/>
      <path class="st0" d="M68.6,34.31c.28-.13,1.61-1.98,4.3-3.19,2.17-.98,3.82-.98,6.51-.98,2.47,0,4.82.2,7.16.3,5.38.24,9.03.17,14.35-.59,4.58-.65,10.14-2.15,13.05-5.82.43-.54,1.26-1.76,1.37-2.45-.28.11-.43.33-.65.48-3.47,2.63-8.71,3.13-12.98,3.45-5.56.41-11.18-.43-16.35-1.13-2.5-.33-5.08-.72-7.56-1.15-2.28-.41-5.67-1.02-7.82-.2-3.02,1.15-4.88,4.99-3.15,8.64.37.67,1.24,2.15,1.76,2.63h0ZM113.8,101.5c.3-1.19,1-1.06,1.67-1.06h5.47c1.02,0,1.74-.2,1.61,1.09l-8.75-.02h0ZM110.94,101.33h-1.82c.04-.59,1.19-3.41,1.19-3.78l-2.91-.04-1.28,3.8h-7.08c.04-.67.82-2.19.8-2.63h-3.32l-2.04,6.04-2.8.02c-.07,1.02-.2,1.87.48,2.54.96.96,3.37.89,4.71-.61.59-.67.78-1.37,1.06-2.17l31.78-.02,1.19-3.54c.41-1.13.82-2.37,1.19-3.54.37-1.13.8-2.39,1.19-3.54.17-.54,1.15-3.19,1.15-3.56-.59,0-2.43-.11-2.84.04-.24.3-1.63,4.69-1.91,5.49l-1.87,5.51h-2.21c.07-1.02,1-2,.15-3.1-.63-.8-2.26-.52-3.34-.52-.76,0-6.04-.09-6.64.09-.3.09-.46.22-.74.28.04-.35,1.09-3.37,1.28-3.89.2-.5,1.26-3.63,1.28-3.91h-2.89l-3.78,11.03h.02ZM46.96,102.65c-.63,1.45-2.5,1.28-1.98-.07.54-1.43,2.56-1.28,1.98.07ZM35.04,104.48l7.1.02c.22.48.17,1.11,1.04,1.67,1.5.96,3.65.02,4.88-1.15.11-.11.2-.22.33-.35.22-.22.2-.2.56-.2h16.37c.22-.46.43-1.26.61-1.76l1.82-5.3c.41-1.28.82-2.32,1.19-3.52.2-.59,1.17-3.15,1.17-3.6h-2.89c-.54,1.35-1.35,3.97-1.87,5.49l-1.65,4.84c-.04.13-.07.24-.11.37-.09.22-.02.17-.17.3-.52.15-5.77.07-6.77.04.17-1.26,1.04-1.32,2.06-1.32h2.69c.17-.33,1-2.74,1.04-3.13-.96.04-.02.3-1.78.3h-4.12c-1.93,0-2.11,1.11-2.65,2.76-.09.28-.33,1.11-.48,1.35l-3.58.04c-.07-1.87-1.43-2.82-3.34-2.41-1.63.37-2.54,1.32-3.43,2.37l-4.06.02c.13-.82,3.67-10.46,3.69-11.03l-2.89-.02c-.17.35-.48,1.35-.61,1.76-.5,1.63-4.17,12.03-4.17,12.44l.02.02ZM79.29,44.14c.26.26.78.67,1.09.93,1.91,1.65,5.15,4.73,6.84,6.64.2.22.3.43.56.56.04-3.15,1.39-4.52,3.95-5.62.54-.24,1-.5,1.63-.74,4.78-1.87,10.23-4.1,13-8.64.43-.72,1.3-2.41,1.39-3.45-.28.11-.85.74-1.32,1.09s-.89.67-1.43,1c-.98.59-2.13,1.17-3.28,1.61-6.88,2.67-15.11.26-20.32,3.84-.8.52-1.93,1.74-2.11,2.78h0ZM25.84,97.2h-3.93c-1.06,0-1.56,0-2.17.72-.43.5-1.28,3.41-1.58,4.3-.24.69-.56,1.54-.74,2.24h-3.99c.04-.67.82-2.32.82-2.78-2.06.37-4.23,4.23-2.3,5.75.67.52,1.5.82,2.52.82,2.61,0,4.17-.74,5.51-2.28.63-.72.87-1.78,1.17-2.69.33-.98.67-1.95,1-2.93l2.02-.02c-.02.5-1.3,3.6-1.32,4.15,3.04-.02,6.01-.09,9.07-.09,1.87,0,1.63-.54,2.26-2.32.2-.56.39-1.17.59-1.72.13-.39.56-1.39.52-1.72h-2.63l-1.06,2.93-4.82.04c.09-.61,1.69-4.71,1.82-5.51-.3.11-.8.59-1.17.78-.52.28-.85.33-1.58.33h-.01ZM83.17,104.43l-3.99.02c.07-.78.67-1.93.85-2.74-1.15-.02-3.5,2.45-3,4.58.24,1.06,1.02,1.43,2,1.78,1.67.59,4.47-.09,5.99-1.35.78-.65,1.15-1.26,1.52-2.32.24-.67,1.87-5.36,1.89-5.67l-3.3-.02c-.04.07-1.89,5.32-1.95,5.71h0ZM67.17,104.48c.37,0,2.74.07,2.87-.07.13-.2,4.8-13.87,4.82-14.11h-2.89c-.2.33-.48,1.3-.63,1.74-.22.59-.39,1.15-.61,1.76-.39,1.15-3.58,10.33-3.56,10.68ZM131.52,104.48l2.89-.02c.85-2.37,1.58-4.65,2.41-7.06.17-.5,2.37-6.75,2.39-7.12h-2.89l-3.63,10.57c-.17.54-1.17,3.28-1.17,3.63ZM88.34,104.48h2.89l2.41-7.06c.28-.8,2.39-6.86,2.39-7.12h-2.89c-1.28,3.52-2.37,7.14-3.63,10.57-.22.61-.39,1.15-.61,1.76-.13.43-.54,1.48-.56,1.85Z"/>
      <path class="st0" d="M55.75,94.99c-.09-.3-.13-.5.07-.72.13-.15.48-.26.67-.07.24.26.07,1.09-.74.78h0ZM54.77,94.99c-.54.17-.89.22-1.52.26-.13.22-.33.91-.37,1.22.85,0,2.08-.2,2.91-.33.8-.13,1.54-.39,1.74-1.43.41-2.11-2.61-2.43-2.76.28ZM34.32,94.62c-1.85.67-1.24,3.56.59,2.84,1.69-.67,1.28-3.54-.59-2.84ZM82.35,96.7c-2.04.39-1.85,3.3-.02,3,1.82-.28,1.74-3.32.02-3ZM15.63,108.88c-.39.2-.46.2-.72.59-.17.28-.3.61-.26,1.02.15,1.65,2.58,1.17,2.45-.67-.02-.69-.69-1.3-1.48-.93h0ZM105.73,105.8c-1.61.43-1.35,3.08.3,2.63,1.54-.41,1.43-3.08-.3-2.63ZM12.48,108.86c-1.58.56-1.22,3.13.41,2.58,1.63-.52,1.24-3.17-.41-2.58ZM102.56,105.8c-1.61.39-1.37,3.1.3,2.63,1.45-.41,1.45-3.06-.3-2.63Z"/>
      <g>
        <path class="st1" d="M77.22,76.51c.87-.24,4.67-2.82,5.51-3.5.61-.48,1.13-.91,1.67-1.37,1.76-1.5,4.15-4.15,5.08-6.97,1.65-4.99-1.24-9.42-4.12-12.83-.98-1.15-2.54-2.82-3.65-3.86-1.74-1.65-3.8-3.41-5.6-4.95-1.13-.96-2.21-1.87-3.23-2.78-1.19-1.06-2.13-2-3.08-2.93-1.56-1.56-4.1-4.32-4.6-7.45-.46-2.74.59-4.75,2.54-6.21.82-.63.96-.61,1.65-1l.26-.22c-3.41-.43-7.88.48-10.62,1.63-2.69,1.13-5.28,3.17-5.91,6.47-.8,4.23,1.98,8.25,4.06,11.12.37.52.85,1.13,1.37,1.74.26.3.46.56.72.85,1.3,1.48,3.93,4.45,5.17,5.64l2.95,3.21c2.02,2.19,4.54,4.58,6.38,6.75,1.69,1.98,3.76,4.41,4.75,6.88.96,2.39,1,5.41-.02,7.84-.15.37-.35.74-.54,1.02l-.52.63c-.2.2-.09.02-.22.28h0Z"/>
        <path class="st1" d="M47.74,42.17c0,4.28.91,7.12,3.02,10.59,1.63,2.69,3.5,5.04,5.28,7.64,2.06,3.04,3.37,4.41,4.75,8.16,1.48,3.95,2.13,7.75,2.02,12.22,3.69-.07,7.47-.85,10.29-2.28,2.56-1.28,4.97-3.95,4.97-7.56,0-3.04-.93-4.58-2.39-6.69-1.02-1.5-3.5-4.52-4.75-5.8l-9.14-9.77c-.39-.41-.65-.76-1.02-1.09-.22-.2-.3-.33-.5-.52-.15-.2-.37-.37-.52-.54-3.17-3.58-7.25-8.31-7.75-13.37-.2-2.06.26-2.3.59-3.63-2.8,2.93-4.84,8.25-4.84,12.61v.03ZM27.14,128.29l4.45.02,1.98-7.36c.11-.43.22-.82.33-1.24.07-.22.24-1.06.39-1.24.13.24,1.15,8.9,1.22,9.83h3.86l3.67-4.95c.43-.61,3.5-4.78,3.73-4.91-.07.56-3.39,9.27-3.47,9.83l4.45.02c.26-1.06,1.56-5.08,2-6.4.17-.54,1.95-6.04,2-6.45h-7.23c-.2.35-.43.67-.67,1.02s-.46.65-.69,1c-1.11,1.58-2.87,4.04-3.84,5.58-.26.39-.22.39-.43.46-.26-.54-.5-6.75-.69-8.03h-6.69c-.54,0-.33-.04-.8,1.41-1.15,3.69-2.47,7.77-3.54,11.4h-.03ZM83.54,128.31c.22-.13.26-.54.33-.76.48-1.52,3.71-11.72,3.76-12.09h-4.43c-.28.74-.52,1.74-.74,2.52l-1.41,4.95c-.11.37-.56,2.26-.78,2.41-.13-.13-.13-.35-.17-.56l-1.17-6.82c-.13-.78-.24-1.69-.43-2.45h-7.51l-3.95,12.81,4.43-.02,1.45-4.97c.22-.82.48-1.65.72-2.47l.63-2.21c.09-.17,0-.11.22-.17.2,1.19,1.43,9.44,1.65,9.86h7.42l-.02-.03ZM124.55,118.46c4.65,0,5.49-.46,4.65,1.98-.41,1.17-.76,1.45-2.15,1.48-1.17.02-2.39.02-3.58,0l1.09-3.45h0ZM129.74,123.36c.33-.17.89-.24,1.3-.35,1.24-.37,2.13-1.02,2.61-2.26.61-1.56,1.45-3.8-.22-4.71-1.3-.72-4.17-.59-5.91-.59-2.11,0-4.39-.09-6.49,0l-4.04,12.85,4.43-.02c.41-.61.76-2.89,1.15-3.39.8-.07,3.8-.11,4.3.15,1.09.54.09,1.82-.17,3.26l4.45-.02c.2-.78.89-2.63.91-3.17.07-1.61-1.76-1.56-2.19-1.69-.2-.07-.04,0-.13-.07h0ZM19.26,118.39c.8-.07,2.71-.11,3.37.2.98.46.28,1.95.04,2.69-.76,2.39-.78,3.89-3.13,4.1-.82.07-2.78.11-3.43-.22-.91-.46-.28-1.89-.04-2.71.26-.82.56-2.04.93-2.74.48-.89,1-1.22,2.26-1.32h0ZM27.85,119.17c.43-2.67-1.48-3.41-3.76-3.69-2.02-.24-5.15-.2-7.03.26-2.08.5-3.58,1.52-4.39,3.19-.39.78-1.67,4.82-1.82,5.69-.43,2.61,1.56,3.41,3.82,3.65,2.08.24,4.97.2,6.97-.26,2.11-.48,3.56-1.52,4.41-3.17.37-.72,1.67-4.84,1.8-5.67h0ZM56.97,123.56c.26-.48.67-.98.93-1.39l1.89-2.78c.15-.26.28-.41.46-.69.11-.17.41-.54.46-.63l.33,5.54-4.06-.04h0ZM53.58,128.34c.28-.13,1.35-1.87,1.63-2.21h5.95l.15,2.21h4.56c0-.91-1-12.68-1.04-12.79l-.2-.07h-.61c-1.8,0-4.36-.07-5.95,0-.2.37-.39.54-.59.82-2.32,3.39-4.93,6.99-7.27,10.38-.3.43-.98,1.26-1.11,1.65-.02,0,4.47,0,4.47,0h0ZM99.97,123.58c.09-.24,1.63-2.5,1.85-2.8.33-.46.59-.89.93-1.37.24-.33.69-1.15.96-1.35l.3,5.51h-4.04ZM92.07,128.34c1.39.02,2.82.02,4.21,0,.54,0,.52-.26,1.09-1.02.3-.41.52-.8.82-1.19h5.93l.17,2.17c.65.17,3.65.02,4.56.04l-1.06-12.85h-5.43c-.91,0-1.24-.13-1.5.24l-2.93,4.17c-.24.33-5.73,8.05-5.86,8.45h0ZM109.94,128.31l4.47.02,4.02-12.83-4.45-.02-4.04,12.83Z"/>
      </g>
    </g>
  </g>
</svg>