<?xml version="1.0" encoding="UTF-8"?>
<svg id="Layer_1" xmlns="http://www.w3.org/2000/svg" version="1.1" viewBox="0 0 150 150">
  <!-- Generator: Adobe Illustrator 29.4.0, SVG Export Plug-In . SVG Version: 2.1.0 Build 152)  -->
  <defs>
    <style>
      .st0 {
        fill: #006631;
        fill-rule: evenodd;
      }
    </style>
  </defs>
  <g>
    <path class="st0" d="M90.87,117.51h3.41v19.91h-3.41c.01-1.08,0-2.17-.04-3.25l-3.21,3.21c-2.22.04-4.44.06-6.66.04-.01-3.36,0-6.72.04-10.08l3.21-3.21c2.22-.04,4.44-.06,6.66-.04v-6.58h0ZM84.29,127.51h6.58v6.5h-6.58v-6.5Z"/>
    <path class="st0" d="M96.2,117.51h3.41v3.33h-3.41v-3.33Z"/>
    <path class="st0" d="M38.32,120.76h10.08v3.41h-9.91v3.25h9.91c0,2.22,0,4.44-.04,6.66-1.1,1.1-2.19,2.19-3.29,3.29-3.33.04-6.66.06-10,.04v-3.41h9.91v-3.25h-9.91c0-2.25,0-4.5.04-6.75,1.08-1.07,2.15-2.15,3.21-3.25h0Z"/>
    <path class="st0" d="M53.64,124.09h10v13.32h-3.33c0-1.08,0-2.17-.04-3.25-1.07,1.07-2.14,2.14-3.21,3.21-2.22.04-4.44.06-6.66.04,0-3.36,0-6.72.04-10.08,1.09-1.07,2.15-2.15,3.21-3.25h0ZM53.73,127.51h6.58v6.5h-6.58s0-6.5,0-6.5Z"/>
    <path class="st0" d="M65.63,124.09h3.41v9.91h6.5v-9.91h3.41c.01,3.33,0,6.66-.04,10-1.1,1.1-2.19,2.19-3.29,3.29-3.33.04-6.66.06-10,.04v-13.33h0Z"/>
    <path class="st0" d="M96.2,124.09h3.41v13.32h-3.41v-13.32Z"/>
    <path class="st0" d="M104.86,124.09h10.08v13.32h-3.41c.01-1.08,0-2.17-.04-3.25l-3.21,3.21c-2.22.04-4.44.06-6.66.04-.01-3.36,0-6.72.04-10.08,1.09-1.07,2.15-2.15,3.21-3.25h0ZM105.03,127.51h6.5v6.5h-6.5v-6.5Z"/>
  </g>
  <g>
    <path class="st0" d="M29.07,89.36h3.41v3.41h-3.41v-3.41Z"/>
    <path class="st0" d="M35.74,89.36h3.33v3.41h-3.33s0-3.41,0-3.41Z"/>
    <path class="st0" d="M115.44,89.36h3.41c.01,5.55,0,11.1-.04,16.66l-3.21,3.21c-11.99.04-23.99.06-35.98.04.01,1.11,0,2.22-.04,3.33l-3.29,3.29c-3.33.04-6.66.06-10,.04v-3.41h9.91c.01-2.14,0-4.28-.04-6.41l-3.12,3.12c-2.25.04-4.5.06-6.75.04-.01-3.36,0-6.72.04-10.08l3.21-3.21c3.36-.04,6.72-.06,10.08-.04v9.91h1.92c-.01-2.19,0-4.39.04-6.58l3.29-3.29c3.33-.04,6.66-.06,10-.04v3.41h-9.91v6.5h11.91v-9.91h3.41v9.91h3.16v-9.91h3.41v9.91h3.25v-9.91h3.41v9.91h1.92v-16.49h0ZM69.72,99.36h6.5v6.5h-6.5v-6.5Z"/>
    <path class="st0" d="M120.85,89.36h3.41v19.91h-3.41v-19.91Z"/>
    <path class="st0" d="M29.07,95.94h10v9.91h6.58v-9.91h3.33c0,3.36,0,6.72-.04,10.08l-3.21,3.21c-3.33.04-6.66.06-10,.04,0-1.06,0-2.11-.04-3.16-1.04,1.04-2.08,2.08-3.12,3.12-2.28.04-4.55.06-6.83.04-.01-3.33,0-6.66.04-10,1.12-1.1,2.21-2.21,3.29-3.33h0ZM29.16,99.36h6.58v6.58h-6.58s0-6.58,0-6.58Z"/>
    <path class="st0" d="M54.31,95.94h10c.01,3.36,0,6.72-.04,10.08l-3.21,3.21c-3.36.04-6.72.06-10.08.04v-3.41h9.91v-6.5h-6.58v-3.42h0Z"/>
    <path class="st0" d="M38.99,112.52h3.41v3.41h-3.41v-3.41Z"/>
    <path class="st0" d="M45.65,112.52h3.33v3.41h-3.33v-3.41Z"/>
  </g>
  <g>
    <path class="st0" d="M26.08,31.15c15.32,2.99,30.63,6.05,45.93,9.16.24,5.01.42,10,.54,14.99-4.81-2.48-9.78-4.57-14.91-6.29-5.39-1.77-10.89-2.18-16.49-1.25,3.34.1,6.64.49,9.91,1.17,3.96,1.13,7.8,2.6,11.49,4.41,2.91,1.46,5.77,3,8.58,4.62-4.57,2.82-9.2,5.55-13.91,8.16.76.94,1.56,1.84,2.42,2.71.08.06.17.06.25,0,4.25-2.74,8.53-5.42,12.87-8.04.36,7.89.65,15.77.87,23.65-4.63-5.12-9.28-10.23-13.95-15.32-1.43.93-2.95,1.72-4.54,2.37-3.12,1.01-6.29,1.17-9.49.5-1.13-.29-2.27-.57-3.41-.83,5.42-.25,10.33-1.95,14.74-5.08-10.37-11.4-20.71-22.82-31.02-34.27-.07-.25-.03-.47.13-.67h-.01Z"/>
    <path class="st0" d="M123.44,31.15c.58-.13.82.1.71.67-10.37,11.4-20.71,22.82-31.02,34.27,4.4,3.15,9.31,4.84,14.74,5.08-1.76.47-3.54.86-5.33,1.17-3.63.35-7.05-.34-10.24-2.08-.64-.38-1.28-.75-1.92-1.12-4.64,5.11-9.27,10.22-13.91,15.32-.03-.15-.06-.31-.08-.46.29-7.73.61-15.47.96-23.19,4.31,2.65,8.6,5.33,12.87,8.04.08.06.17.06.25,0,.78-.9,1.59-1.79,2.42-2.67-4.69-2.65-9.33-5.39-13.91-8.2,5.32-3.21,10.9-5.89,16.74-8.04,2.08-.75,4.22-1.28,6.41-1.58,2.27-.29,4.54-.48,6.83-.58-5.51-.92-10.92-.53-16.24,1.17-5.21,1.73-10.27,3.86-15.16,6.37.1-5,.28-9.99.54-14.99,15.12-3.06,30.23-6.11,45.34-9.16h0v-.02Z"/>
    <path class="st0" d="M74.96,12.58c.76,1,1.21,2.14,1.37,3.41,1.37-1.18,2.94-1.54,4.71-1.08-.82.41-1.49.99-2,1.75,5.85-.61,10.43,1.5,13.74,6.33-.04.08-.1.1-.17.04-3.34-2.4-7.06-3.42-11.16-3.08,6.15,1.51,9.72,5.38,10.7,11.62-2.03-2.42-4.32-4.54-6.87-6.37-.74-.51-1.52-.92-2.33-1.25,2.79,3.46,3.83,7.39,3.12,11.78-1.11-3.91-3.19-7.18-6.25-9.83.59,2.97.7,5.97.33,8.99-.11.88-.29,1.74-.54,2.58-.68-2.74-1.5-5.43-2.46-8.08-.53-1.42-1.25-2.73-2.17-3.91-.92,1.25-1.64,2.61-2.17,4.08-.94,2.6-1.75,5.24-2.42,7.91-.96-3.87-1.03-7.73-.21-11.58-3.05,2.63-5.12,5.91-6.21,9.83-.74-4.41.3-8.33,3.12-11.78-1.49.68-2.88,1.54-4.17,2.58-1.83,1.5-3.5,3.16-5,5,.66-5.33,3.54-8.99,8.66-10.99.65-.24,1.32-.44,2-.58-1.98-.24-3.92-.07-5.83.5-1.98.59-3.81,1.46-5.5,2.62,1.67-2.71,4.03-4.64,7.08-5.79,2.18-.69,4.4-.88,6.66-.58-.51-.77-1.18-1.37-2-1.79,1.73-.44,3.28-.11,4.66,1,.23-1.18.65-2.29,1.25-3.33h.06Z"/>
  </g>
</svg>