<?xml version="1.0" encoding="UTF-8"?>
<svg id="Layer_1" xmlns="http://www.w3.org/2000/svg" version="1.1" viewBox="0 0 150 150">
  <!-- Generator: Adobe Illustrator 29.4.0, SVG Export Plug-In . SVG Version: 2.1.0 Build 152)  -->
  <defs>
    <style>
      .st0 {
        fill: #fcb130;
      }

      .st1 {
        fill: #1d4886;
      }
    </style>
  </defs>
  <g>
    <path class="st0" d="M11.53,95.56h87.87l-1.74,2.72H11.53v-2.72Z"/>
    <path class="st0" d="M115.41,94.33h-3.23l6.52-10.3s.97-2.13-.3-4.39l-9.09-15.06s-.8-1.4,0-2.74l2.69-4.03,10.67,17.44s2.75,3.65-.24,8.17l-7.03,10.9h.01Z"/>
    <path class="st0" d="M123.2,91.17l3.97-6.04s1.16-2.49,4.15-2.49h4.21l2.93,4.63s-2.32-.24-3.35,1.41l-4.33,6.52s-1.41,3.05-5.18,3.05h-20.38l7.75-11.9s1.1-1.4-.44-3.71l-6.9-11.09s-1.7-1.64.06-4.45l2.02-3.05,9.59,15.54s1.7,2.13,0,4.69l-7.2,11.23h15.18s1.71.31,3.18-1.88l3.77-5.8s.86-1.95,2.75-2.75h-3.05s-1.59.06-2.81,1.95l-3.35,5.18s-1.22,2.19-3.91,2.19h-5.31l6.4-9.94s3.49-4.58,1.04-8.79l-10.61-17.55s-.8-1.52.12-2.93l2.32-3.47,12.08,19.46s1.77,2.91,1.77,5.17-1.41,4.81-2.19,6.1l-5.32,8.3s-.6.8-.18,1.1c.43.3.85-.24,1.21-.68"/>
  </g>
  <path class="st1" d="M55.77,82.72h1.88v7.44h4.58v1.59h-6.46v-9.03ZM63.67,91.75h1.86v-9.03h-1.86v9.03ZM40.81,91.75h1.85v-9.03h-1.85v9.03ZM78.87,82.72h7.08v1.49h-5.2v2.21h4.42v1.64h-4.42v2.19h5.2v1.5h-7.08v-9.04h0ZM88.83,70.58h7.08v1.49h-5.2v2.19h4.43v1.64h-4.43v2.19h5.2v1.49h-7.08v-9ZM45.52,91.75v-9.03h5.37s2.58.05,2.58,2.63c0,0,.24,2.15-1.95,3.02l2.72,3.38h-2.32l-3.76-4.69h1.95s1.4-.03,1.4-1.44-1.13-1.44-1.47-1.44h-2.65v7.58h-1.88.01ZM78.54,79.58v-9h5.37s2.58.05,2.58,2.63c0,0,.22,2.13-1.95,3.01l2.72,3.37h-2.32l-3.76-4.66h1.95s1.4-.03,1.4-1.44-1.13-1.44-1.47-1.44h-2.65v7.54h-1.88,0ZM40.95,78.02h2.54v-4.13h1.8v5.7h-4.73c-.71,0-4.12-.8-4.15-4.39-.03-3.56,3.08-4.62,4.29-4.62h4.65v1.59h-4.19s-2.81,0-2.81,2.96c0,2.29,2.33,2.88,2.61,2.88M67.99,82.72h1.89v1.4l1.19-1.4h2.24s3.07-.17,3.07,3.11v5.92h-1.91v-6.2s-.06-1.23-1.35-1.23h-3.23v7.44h-1.89v-9.03h0ZM26.3,70.58h1.88v1.38l1.19-1.38h2.24s3.08-.17,3.08,3.11v5.89h-1.91v-6.18s-.08-1.23-1.37-1.23h-3.23v7.41h-1.88s0-9,0-9ZM21.86,79.58h1.85v-9h-1.85v9ZM88.01,91.74v-1.53h5.23s1.04.19,1.04-1.07-.78-1.13-1.07-1.13h-3.02s-2.33.16-2.33-2.57,2.3-2.72,2.3-2.72h5.74v1.59h-5.04s-1.1,0-1.1,1.04.74,1.23,1.43,1.23h2.69s2.27-.24,2.27,2.46-2.33,2.69-2.33,2.69h-5.81ZM11.72,79.58v-1.53h5.23s1.04.2,1.04-1.07-.78-1.13-1.07-1.13h-3.02s-2.33.16-2.33-2.55,2.3-2.72,2.3-2.72h5.74v1.59h-5.04s-1.1,0-1.1,1.04.75,1.23,1.43,1.23h2.69s2.27-.24,2.27,2.45-2.33,2.69-2.33,2.69h-5.81Z"/>
  <path class="st1" d="M72.12,70.02c-2.71,0-4.92,2.21-4.92,4.92s2.21,4.92,4.92,4.92c2.71.01,4.91-2.17,4.92-4.88v-.04c0-2.72-2.18-4.92-4.92-4.92M72.12,78.06c-1.7,0-3.07-1.39-3.07-3.11s1.38-3.11,3.07-3.11,3.11,1.41,3.11,3.11-1.4,3.11-3.11,3.11M52.75,70.58h-1.99l-4.29,9h2.11l1.14-2.59h4.08l1.13,2.59h2.11M50.26,75.67l1.5-3.69,1.49,3.68h-2.99ZM35.15,82.73h-1.99l-4.29,9.03h2.11l1.14-2.59h4.08l1.13,2.59h2.11M32.66,87.83l1.5-3.7,1.49,3.69h-2.99ZM63.22,70.58h-5v9h1.92v-4.37l1.11,1.52h1.98c1.73,0,2.89-1.44,2.89-3.08s-1.16-3.08-2.89-3.08M63.15,75.07h-3.02v-2.83h3.02c.68,0,1.14.75,1.14,1.43s-.46,1.41-1.14,1.41"/>
</svg>