<?xml version="1.0" encoding="UTF-8"?>
<svg id="Layer_1" xmlns="http://www.w3.org/2000/svg" xmlns:xlink="http://www.w3.org/1999/xlink" version="1.1" viewBox="0 0 150 150">
  <!-- Generator: Adobe Illustrator 29.4.0, SVG Export Plug-In . SVG Version: 2.1.0 Build 152)  -->
  <defs>
    <style>
      .st0 {
        fill: none;
      }

      .st1 {
        fill: #f6a11c;
      }

      .st2 {
        fill: #e52426;
      }

      .st3 {
        fill: #fbd107;
      }

      .st4 {
        fill: #f5a91a;
      }

      .st5 {
        fill: #f49822;
      }

      .st6 {
        fill: #fad700;
      }

      .st7 {
        fill: #f8ba15;
      }

      .st8 {
        fill: #f7a51d;
      }

      .st9 {
        fill: #f8b81a;
      }

      .st10 {
        fill: #f9b61c;
      }

      .st11 {
        fill: #f6a31a;
      }

      .st12 {
        fill: #f8bf13;
      }

      .st13 {
        clip-path: url(#clippath);
      }
    </style>
    <clipPath id="clippath">
      <rect class="st0" x="10.79" y="57.38" width="128.41" height="35.25"/>
    </clipPath>
  </defs>
  <g class="st13">
    <g>
      <path class="st3" d="M44.5,77.45c-.98.95-2.31,1.23-2.87.67-.55-.56-.27-1.93.7-2.87.98-.94,2.28-1.26,2.85-.71.56.56.29,1.97-.68,2.91Z"/>
      <path class="st6" d="M48.47,77.32c-.7.77-1.65,1.06-2.11.67-.45-.39-.28-1.42.42-2.19.71-.76,1.67-1.12,2.13-.72.45.39.26,1.46-.44,2.24Z"/>
      <path class="st4" d="M31.99,72.44c-1.32-.29-3.14.17-4.38,1.4-1.3,1.29-2.26,3.05-1.74,4.5.21.6,1.06,1.17,1.74,1.19,1.33.06,2.86-.55,3.92-1.52,1.13-1.03,1.72-2.54,1.75-3.61,0-.26,0-.38-.06-.67-.12-.62-.73-1.2-1.22-1.3"/>
      <path class="st9" d="M39.13,77.6c-1.31,1.25-3.24,1.71-3.98.97-.75-.74-.3-2.59,1-3.85s3.12-1.56,3.87-.82c.75.73.42,2.43-.88,3.7h0Z"/>
      <path class="st11" d="M36.83,74.25c.45-.37.94-.63,1.37-.67-.48.18-.95.4-1.37.67Z"/>
      <path class="st3" d="M47.71,71.47c-.8,1.1-2.1,1.57-2.75,1.12-.64-.45-.64-1.83.15-2.94.81-1.09,2.12-1.65,2.76-1.2.65.45.65,1.92-.16,3.01"/>
      <path class="st6" d="M50.82,72.64c-.65.88-1.61,1.3-2.12.94-.52-.36-.45-1.43.2-2.32.64-.88,1.63-1.36,2.14-.99.51.35.43,1.5-.22,2.38h0Z"/>
      <path class="st10" d="M37.26,68c-1.63,1.95-4.11,2.74-5.18,1.73-1.24-1.19-1.3-3.09.53-5.38,1.96-2.46,4.14-2.55,5.28-1.63,1.15.92.99,3.33-.63,5.28Z"/>
      <path class="st12" d="M43.32,69.94c-1.19,2.01-3.03,2.04-3.86,1.4-.81-.66-.58-2.57.59-3.96,1.16-1.4,3.02-1.95,3.77-1.21.63.62.44,2.21-.5,3.77Z"/>
      <path class="st11" d="M32.19,61.6c0,.29-.02.57-.05.86.02-.28.05-.57.05-.86Z"/>
      <path class="st1" d="M30.3,58.09c-4.24-1.78-8.51,3.96-8.17,7.18.27,2.49,1.85,3.49,4.07,3.14.04-.02.07-.02.1-.02,2.34-.31,4.31-2.22,5.2-3.9.31-.59.52-1.29.63-2.01h0c.02-.3.05-.58.05-.88,0-1.5-.55-2.94-1.89-3.51"/>
      <path class="st5" d="M21.4,70.94c-.97.16-1.89.57-2.73,1.12-1.36.8-2.5,1.86-3.16,3.14-.81,1.57-.71,2.98-.02,3.96.31.53.75.85,1.18,1.03.23.09.48.17.73.22h0c.74.17,1.57.16,2.49-.08,2.7-.73,5.75-3.65,5.73-6.41-.01-2.7-2-3.46-4.24-2.98"/>
      <path class="st6" d="M47.7,81.57c-.74.72-1.71.96-2.14.53s-.19-1.42.56-2.15c.75-.72,1.74-1.01,2.18-.58.43.42.16,1.48-.59,2.2h-.01Z"/>
      <path class="st3" d="M43.05,82.94c-1.02.89-2.28,1.12-2.81.53-.52-.59-.11-1.78.93-2.66,1.03-.88,2.24-1.11,2.78-.51.51.58.15,1.77-.89,2.65h0Z"/>
      <path class="st7" d="M36.85,84.84c-1.38,1.18-3.06,1.49-3.76.7-.7-.79-.15-2.38,1.23-3.55,1.38-1.18,3-1.48,3.7-.69.7.78.21,2.36-1.16,3.54h-.01Z"/>
      <path class="st8" d="M29.22,82.22c-2.73-.77-7.07,2.7-6.44,5.43.15.62,1,1.16,1.67,1.24,2.73.28,5.81-2.63,5.98-4.69-.01-.24-.02-.48-.03-.72-.08-.62-.68-1.12-1.17-1.26h0Z"/>
      <path class="st5" d="M21.87,85.26c-.5-2.07-3-1.9-4.69-1.41-.63.15-1.26.38-1.85.7h-.01c-.87.42-1.58.94-2.24,1.57-.8.77-2.17,2.5-1.89,4.18.29,1.77,2.5,2.28,4.5,1.8,2.4-.55,6.94-3.62,6.18-6.84"/>
      <path class="st2" d="M63.86,70.83c-.35-1.05-.32-2.54-2.08-2.51-1.73.04-2.54,1.18-2.54,2.54,0,2.2,5.58,2.63,6,7.09.26,2.66-2.35,7.09-7.58,7.14-2.12,0-4.76-.95-4.81-5.41l3.76-.81c.04,1.12-.05,3.12,2.1,3.12,1.64,0,2.49-1.54,2.62-2.76.31-2.79-5.91-3.59-5.88-7.15.04-3.33,2.2-6.78,7.36-6.73,5.12.04,4.43,4.6,4.43,4.6,0,0-3.38.88-3.38.88Z"/>
      <path class="st2" d="M71.58,73.7l-2,7.91c.45.69,1.02,1.05,1.72,1.03.44.03.88-.18,1.3-.65.42-.47.83-1.4,1.18-2.8l.78-3.07c.34-1.4.41-2.33.23-2.8-.19-.48-.52-.69-.99-.65-.7-.02-1.44.33-2.24,1.03M69.12,70.43h3.02l-.44,1.75h.05c.43-.48,1.02-.93,1.76-1.35.74-.41,1.48-.64,2.24-.66,1.27,0,2.06.49,2.39,1.48.32.97.25,2.39-.24,4.25l-.88,3.51c-.46,1.85-1.1,3.29-1.91,4.26-.82.97-1.86,1.46-3.14,1.47-.42,0-.86-.11-1.29-.36-.44-.24-.97-.65-1.59-1.24l-2.03,8.03h-3.29l5.34-21.14h.01Z"/>
      <path class="st2" d="M97.64,75.41h-3.27l.16-.63c.13-.56.06-.98-.22-1.27-.26-.29-.7-.43-1.28-.43s-1.09.15-1.5.43c-.43.29-.71.71-.85,1.27l-1.45,5.72c-.14.56-.06.99.21,1.27s.71.43,1.29.43,1.09-.15,1.51-.43c.42-.29.7-.72.85-1.27l.23-.9h3.29l-.02.05c-.5,1.9-1.3,3.28-2.42,4.16-1.13.88-2.52,1.31-4.17,1.29-1.66.02-2.84-.42-3.52-1.29-.69-.88-.8-2.27-.32-4.16l1.01-4.04c.49-1.89,1.31-3.29,2.43-4.16,1.13-.88,2.52-1.32,4.18-1.3,1.62-.02,2.77.41,3.46,1.25.69.85.82,2.18.41,4"/>
      <path class="st2" d="M109.36,78.45h-7.15l-.48,1.91c-.17.72-.11,1.24.17,1.57.27.34.69.5,1.25.5.69-.02,1.23-.21,1.63-.58.4-.39.67-.86.82-1.44h3.28c-.46,1.51-1.22,2.67-2.31,3.48-1.08.83-2.45,1.23-4.1,1.25-1.59-.02-2.73-.47-3.44-1.38-.71-.9-.87-2.15-.49-3.75l1.19-4.72c.42-1.6,1.22-2.85,2.39-3.75,1.16-.9,2.53-1.36,4.13-1.38,1.54.02,2.68.46,3.41,1.35.73.88.93,2.06.57,3.56l-.85,3.37h-.02ZM102.89,75.75h3.86l.2-.8c.16-.64.15-1.15-.08-1.53-.22-.35-.67-.55-1.33-.55s-1.2.2-1.6.55c-.41.38-.69.88-.84,1.53l-.21.8Z"/>
      <path class="st2" d="M129.02,78.45h-7.14l-.48,1.91c-.16.72-.11,1.24.16,1.57.27.34.69.5,1.25.5.69-.02,1.23-.21,1.64-.58.39-.39.65-.86.8-1.44h3.29c-.45,1.51-1.22,2.67-2.3,3.48-1.08.83-2.44,1.23-4.1,1.25-1.59-.02-2.73-.47-3.44-1.38-.71-.9-.88-2.15-.5-3.75l1.19-4.72c.43-1.6,1.22-2.85,2.38-3.75,1.16-.9,2.54-1.36,4.13-1.38,1.55.02,2.69.46,3.41,1.35.73.88.92,2.06.57,3.56l-.85,3.37h0ZM122.55,75.75h3.86l.2-.8c.16-.64.13-1.15-.09-1.53-.22-.35-.66-.55-1.31-.55s-1.2.2-1.61.55c-.41.38-.69.88-.85,1.53l-.19.8h-.01Z"/>
      <path class="st2" d="M132.74,73.78h-1.71l.68-2.71h1.71l1.25-5.01h3.29l-1.25,5.01h2.11l-.68,2.71h-2.12l-1.85,7.38c-.09.36-.02.63.22.8.21.18.55.27,1.01.27.23,0,.44-.02.66-.03l-.71,2.82c-.65.09-1.29.14-1.92.13-1.08,0-1.9-.21-2.41-.65-.51-.45-.65-1.19-.41-2.22l2.13-8.49h0Z"/>
      <path class="st2" d="M112.13,80.45l2.34-9.27,1.29-5.11h3.29l-1.3,5.11-3.96,15.37c-.51,1.88-1.31,3.27-2.43,4.13-1.12.88-2.52,1.31-4.17,1.31s-2.84-.42-3.51-1.31c-.69-.88-.8-2.25-.34-4.16l3.32-.02-.24.87c-.12.57-.05.98.21,1.27.27.29.71.44,1.29.44s1.08-.16,1.51-.44c.43-.29.7-.7.85-1.27l.29-1.16,1.55-5.76h0Z"/>
      <path class="st2" d="M82.06,70.43h3.28l-3.63,14.44h-3.29l3.64-14.44Z"/>
      <path class="st2" d="M85.72,69.09h-3.29l.76-3.03h3.28l-.74,3.03h-.01Z"/>
    </g>
  </g>
</svg>